<?xml version="1.0" encoding="UTF-8"?>
<svg id="katman_2" xmlns="http://www.w3.org/2000/svg" xmlns:xlink="http://www.w3.org/1999/xlink" viewBox="0 0 589.46 123.79">
  <defs>
    <style>
      .cls-1 {
        fill: url(#linear-gradient-2);
      }

      .cls-2 {
        fill: url(#linear-gradient);
      }
    </style>
    <linearGradient id="linear-gradient" x1="110.59" y1="33.91" x2="28.83" y2="33.91" gradientUnits="userSpaceOnUse">
      <stop offset=".09" stop-color="#2b194c"/>
      <stop offset=".87" stop-color="#8062ef"/>
    </linearGradient>
    <linearGradient id="linear-gradient-2" x1="139.42" y1="85.44" x2="0" y2="85.44" xlink:href="#linear-gradient"/>
  </defs>
  <g id="katman_1">
    <g>
      <g>
        <g>
          <path d="M184.25,12.42h10.71l15.57,50.85,15.48-50.85h10.71l-19.62,64.26h-13.23l-19.62-64.26Z"/>
          <path d="M240.78,17.73c0-2.04.61-3.67,1.84-4.91,1.23-1.23,2.87-1.85,4.91-1.85s3.67.62,4.91,1.85c1.23,1.23,1.85,2.87,1.85,4.91s-.62,3.68-1.85,4.91c-1.23,1.23-2.87,1.84-4.91,1.84s-3.68-.61-4.91-1.84c-1.23-1.23-1.84-2.86-1.84-4.91ZM242.13,28.62h10.8v48.06h-10.8V28.62Z"/>
          <path d="M297.39,42.48h-10.8c0-1.2-.67-2.17-2.02-2.92-1.35-.75-3.32-1.12-5.9-1.12-2.22,0-3.99.29-5.31.86-1.32.57-1.98,1.34-1.98,2.29s.67,1.74,2.03,2.34c1.35.6,3.04,1.19,5.09,1.76,2.04.57,4.23,1.21,6.57,1.93,2.34.72,4.53,1.68,6.57,2.88,2.04,1.2,3.74,2.73,5.09,4.59,1.35,1.86,2.03,4.23,2.03,7.11,0,2.28-.47,4.37-1.4,6.26-.93,1.89-2.25,3.51-3.96,4.86-1.71,1.35-3.77,2.4-6.17,3.15-2.4.75-5.04,1.12-7.92,1.12s-5.63-.39-8.06-1.17c-2.43-.78-4.5-1.87-6.21-3.29-1.71-1.41-3.03-3.11-3.96-5.09-.93-1.98-1.39-4.17-1.39-6.57h10.8c0,1.74.75,3.06,2.25,3.96,1.5.9,3.63,1.35,6.39,1.35s4.84-.41,6.44-1.22c1.59-.81,2.38-1.87,2.38-3.19s-.67-2.25-2.02-2.97-3.05-1.38-5.09-1.98c-2.04-.6-4.23-1.23-6.57-1.89-2.34-.66-4.53-1.54-6.57-2.66-2.04-1.11-3.74-2.53-5.09-4.27-1.35-1.74-2.02-3.96-2.02-6.66,0-2.16.43-4.11,1.31-5.85.87-1.74,2.12-3.24,3.74-4.5,1.62-1.26,3.56-2.23,5.81-2.92,2.25-.69,4.73-1.04,7.43-1.04s5.28.36,7.56,1.08c2.28.72,4.23,1.73,5.85,3.02,1.62,1.29,2.88,2.85,3.78,4.68.9,1.83,1.35,3.86,1.35,6.08Z"/>
          <path d="M354.09,76.68h-10.8v-2.88c-1.92,1.2-4.08,2.13-6.48,2.79-2.4.66-4.98.99-7.74.99-3.72,0-7.11-.6-10.17-1.8-3.06-1.2-5.69-2.89-7.88-5.09-2.19-2.19-3.89-4.82-5.09-7.88-1.2-3.06-1.8-6.45-1.8-10.17s.6-7.2,1.8-10.26c1.2-3.06,2.89-5.68,5.09-7.88s4.82-3.88,7.88-5.09c3.06-1.2,6.45-1.8,10.17-1.8s7.2.6,10.26,1.8c3.06,1.2,5.68,2.9,7.88,5.09,2.19,2.19,3.88,4.82,5.08,7.88,1.2,3.06,1.8,6.48,1.8,10.26v24.03ZM343.29,52.65c0-4.32-1.29-7.77-3.87-10.35-2.58-2.58-6.03-3.87-10.35-3.87s-7.68,1.29-10.26,3.87c-2.58,2.58-3.87,6.03-3.87,10.35s1.29,7.68,3.87,10.26c2.58,2.58,6,3.87,10.26,3.87s7.77-1.29,10.35-3.87c2.58-2.58,3.87-6,3.87-10.26Z"/>
          <path d="M391.45,49.95c0-3.6-.92-6.39-2.75-8.37-1.83-1.98-4.27-2.97-7.34-2.97s-5.52.99-7.38,2.97c-1.86,1.98-2.79,4.77-2.79,8.37v26.73h-10.8v-28.35c0-3.12.5-5.95,1.49-8.51.99-2.55,2.41-4.73,4.28-6.53,1.86-1.8,4.08-3.19,6.66-4.19,2.58-.99,5.49-1.49,8.73-1.49s6.15.53,8.73,1.58c2.58,1.05,4.77,2.54,6.57,4.46,1.86-1.92,4.11-3.41,6.75-4.46,2.64-1.05,5.64-1.58,9-1.58,3.12,0,5.96.5,8.51,1.49,2.55.99,4.73,2.39,6.53,4.19s3.19,3.98,4.19,6.53c.99,2.55,1.49,5.39,1.49,8.51v28.35h-10.8v-26.73c0-3.6-.92-6.39-2.74-8.37-1.83-1.98-4.28-2.97-7.34-2.97s-5.52.99-7.38,2.97c-1.86,1.98-2.79,4.77-2.79,8.37v26.73h-10.8v-26.73Z"/>
          <path d="M439.15,52.56c0-3.72.6-7.11,1.8-10.17,1.2-3.06,2.89-5.68,5.09-7.88s4.82-3.88,7.88-5.09c3.06-1.2,6.48-1.8,10.26-1.8s7.11.6,10.17,1.8c3.06,1.2,5.68,2.9,7.88,5.09,2.19,2.19,3.88,4.82,5.09,7.88,1.2,3.06,1.8,6.45,1.8,10.17s-.6,7.2-1.8,10.26c-1.2,3.06-2.9,5.69-5.09,7.88s-4.82,3.89-7.88,5.09c-3.06,1.2-6.45,1.8-10.17,1.8s-7.2-.6-10.26-1.8c-3.06-1.2-5.69-2.89-7.88-5.09-2.19-2.19-3.89-4.82-5.09-7.88-1.2-3.06-1.8-6.48-1.8-10.26ZM449.95,52.56c0,4.32,1.29,7.77,3.87,10.35,2.58,2.58,6.03,3.87,10.35,3.87s7.68-1.29,10.26-3.87c2.58-2.58,3.87-6.03,3.87-10.35s-1.29-7.68-3.87-10.26c-2.58-2.58-6-3.87-10.26-3.87s-7.77,1.29-10.35,3.87c-2.58,2.58-3.87,6-3.87,10.26Z"/>
          <path d="M544.45,52.65c0,3.72-.6,7.11-1.8,10.17-1.2,3.06-2.9,5.69-5.09,7.88-2.19,2.19-4.82,3.89-7.88,5.09-3.06,1.2-6.48,1.8-10.26,1.8s-7.11-.6-10.17-1.8c-3.06-1.2-5.69-2.89-7.88-5.09-2.19-2.19-3.89-4.82-5.09-7.88-1.2-3.06-1.8-6.45-1.8-10.17s.6-7.2,1.8-10.26c1.2-3.06,2.89-5.68,5.09-7.88s4.82-3.88,7.88-5.09c3.06-1.2,6.45-1.8,10.17-1.8,2.76,0,5.34.33,7.74.99,2.4.66,4.56,1.59,6.48,2.79V12.42h10.8v40.23ZM533.65,52.65c0-4.32-1.29-7.77-3.87-10.35-2.58-2.58-6.03-3.87-10.35-3.87s-7.68,1.29-10.26,3.87c-2.58,2.58-3.87,6.03-3.87,10.35s1.29,7.68,3.87,10.26c2.58,2.58,6,3.87,10.26,3.87s7.77-1.29,10.35-3.87,3.87-6,3.87-10.26Z"/>
        </g>
        <g>
          <path d="M198.47,100.37l-.74,1.4c-.95-.48-1.9-.83-2.83-1.05s-1.85-.33-2.75-.33-1.69.09-2.42.28c-.73.18-1.36.44-1.88.77-.52.33-.93.71-1.22,1.15-.29.44-.44.92-.44,1.43,0,.65.19,1.17.56,1.56.37.39.86.7,1.48.93.62.23,1.31.4,2.09.52.78.12,1.58.24,2.4.37.82.13,1.62.3,2.4.49.78.19,1.47.47,2.09.83.62.36,1.11.84,1.48,1.44s.56,1.37.56,2.3c0,.81-.17,1.55-.5,2.22-.33.67-.82,1.25-1.44,1.73-.63.49-1.38.86-2.25,1.14-.87.27-1.85.41-2.93.41-1.48,0-2.93-.25-4.33-.74-1.4-.49-2.58-1.16-3.53-2.01l.95-1.27c.41.37.87.71,1.39,1.01.52.3,1.08.56,1.68.77.6.21,1.23.38,1.88.49.65.12,1.31.17,1.96.17.83,0,1.58-.09,2.25-.28.67-.19,1.25-.45,1.75-.78.49-.33.87-.74,1.14-1.2.26-.47.4-.98.4-1.55,0-.74-.19-1.33-.56-1.77-.37-.44-.86-.79-1.48-1.06-.62-.26-1.31-.47-2.09-.61-.78-.14-1.58-.27-2.4-.4s-1.62-.27-2.4-.44c-.78-.17-1.47-.42-2.09-.75-.62-.33-1.11-.78-1.48-1.32-.37-.55-.56-1.26-.56-2.14,0-.78.18-1.49.53-2.13.35-.64.85-1.2,1.5-1.67s1.42-.83,2.32-1.09c.9-.26,1.9-.38,2.99-.38.58,0,1.18.04,1.79.12.61.08,1.2.18,1.77.32.57.13,1.12.3,1.63.49s.96.41,1.35.64Z"/>
          <path d="M202.44,111.4c.14,1.55.72,2.77,1.73,3.65s2.34,1.32,3.98,1.32c1.39,0,2.57-.33,3.52-.98.95-.65,1.62-1.59,2.01-2.81h1.61c-.18.81-.48,1.55-.9,2.22-.42.67-.94,1.24-1.55,1.69-.61.46-1.31.82-2.11,1.07-.79.26-1.66.38-2.59.38-1.09,0-2.09-.18-2.99-.53-.9-.35-1.67-.85-2.32-1.5s-1.14-1.42-1.5-2.32c-.35-.9-.53-1.9-.53-2.99s.18-2.12.53-3.02c.35-.9.85-1.67,1.5-2.32s1.42-1.14,2.32-1.5c.9-.35,1.9-.53,2.99-.53s2.12.18,3.02.53c.9.35,1.67.85,2.32,1.5.64.64,1.14,1.42,1.5,2.32.35.9.53,1.91.53,3.02v.38c0,.12,0,.24-.03.38h-13.05ZM213.9,109.87c-.12-1.54-.7-2.75-1.72-3.65-1.02-.9-2.37-1.35-4.02-1.35s-2.94.45-3.96,1.34c-1.01.89-1.6,2.11-1.76,3.67h11.46Z"/>
          <path d="M231.8,117.71h-1.59v-2.22c-.65.79-1.47,1.41-2.45,1.84-.98.43-2.09.65-3.32.65-1.09,0-2.09-.18-2.99-.53-.9-.35-1.67-.85-2.32-1.5s-1.14-1.42-1.5-2.32c-.35-.9-.53-1.9-.53-2.99s.18-2.12.53-3.02c.35-.9.85-1.67,1.5-2.32s1.42-1.14,2.32-1.5c.9-.35,1.9-.53,2.99-.53s2.12.18,3.02.53c.9.35,1.67.85,2.32,1.5.64.64,1.14,1.42,1.5,2.32.35.9.53,1.91.53,3.02v7.07ZM230.21,110.64c0-1.78-.52-3.19-1.55-4.22-1.03-1.03-2.44-1.55-4.22-1.55-.87,0-1.66.14-2.37.41s-1.32.66-1.81,1.16-.88,1.11-1.15,1.81-.41,1.5-.41,2.38.14,1.65.41,2.37.66,1.32,1.15,1.81,1.1.88,1.81,1.15c.71.27,1.5.41,2.37.41s1.68-.14,2.38-.41c.71-.27,1.31-.66,1.81-1.15.5-.49.89-1.1,1.16-1.81.27-.71.41-1.5.41-2.37Z"/>
          <path d="M243.05,109.02c0-2.77-1.25-4.16-3.76-4.16-.55,0-1.05.1-1.52.3s-.87.49-1.2.86c-.34.37-.6.81-.78,1.32-.19.51-.28,1.07-.28,1.67v8.68h-1.59v-8.34c0-.92.13-1.75.38-2.5.26-.75.62-1.39,1.1-1.92.48-.53,1.05-.94,1.72-1.23.67-.29,1.41-.44,2.22-.44,1.04,0,1.96.21,2.74.63.79.42,1.4,1.02,1.84,1.77.46-.71,1.08-1.28,1.85-1.73.78-.45,1.68-.67,2.7-.67.79,0,1.52.15,2.17.44.65.29,1.21.7,1.67,1.23.46.53.82,1.17,1.07,1.92.26.75.38,1.58.38,2.5v8.34h-1.59v-8.68c0-.62-.09-1.18-.28-1.69-.18-.51-.44-.95-.77-1.31-.33-.36-.72-.64-1.18-.85s-.97-.3-1.54-.3-1.08.1-1.55.3-.86.49-1.19.86c-.33.37-.58.81-.77,1.31-.19.5-.28,1.06-.28,1.68v8.68h-1.59v-8.68Z"/>
          <path d="M257.48,98.8v14c0,2.24,1.23,3.36,3.68,3.36v1.54h-.61c-.71,0-1.35-.12-1.92-.34s-1.06-.56-1.47-.98c-.41-.42-.72-.93-.94-1.52-.22-.59-.33-1.25-.33-1.97v-14.08h1.59Z"/>
          <path d="M263.83,111.4c.14,1.55.72,2.77,1.73,3.65s2.34,1.32,3.98,1.32c1.39,0,2.57-.33,3.52-.98.95-.65,1.62-1.59,2.01-2.81h1.61c-.18.81-.48,1.55-.9,2.22-.42.67-.94,1.24-1.55,1.69-.61.46-1.31.82-2.11,1.07-.79.26-1.66.38-2.59.38-1.09,0-2.09-.18-2.99-.53-.9-.35-1.67-.85-2.32-1.5s-1.14-1.42-1.5-2.32c-.35-.9-.53-1.9-.53-2.99s.18-2.12.53-3.02c.35-.9.85-1.67,1.5-2.32s1.42-1.14,2.32-1.5c.9-.35,1.9-.53,2.99-.53s2.12.18,3.02.53c.9.35,1.67.85,2.32,1.5.64.64,1.14,1.42,1.5,2.32.35.9.53,1.91.53,3.02v.38c0,.12,0,.24-.03.38h-13.05ZM275.3,109.87c-.12-1.54-.7-2.75-1.72-3.65-1.02-.9-2.37-1.35-4.02-1.35s-2.94.45-3.96,1.34c-1.01.89-1.6,2.11-1.76,3.67h11.46Z"/>
          <path d="M288,106.64h-1.59c0-.55-.28-.98-.85-1.3-.57-.32-1.3-.48-2.2-.48-.99,0-1.77.19-2.33.58-.57.39-.85.92-.85,1.59,0,.57.2,1.01.6,1.34.4.33.9.6,1.5.81.6.21,1.25.41,1.95.6.7.18,1.35.43,1.95.74s1.1.71,1.5,1.22.6,1.18.6,2.02c0,.64-.12,1.21-.36,1.72-.24.51-.57.95-1.01,1.32-.43.37-.96.66-1.58.86-.62.2-1.3.3-2.04.3s-1.43-.1-2.05-.3c-.63-.2-1.16-.49-1.6-.85-.44-.36-.79-.8-1.03-1.31s-.37-1.09-.37-1.72h1.59c0,.79.33,1.43.98,1.89.65.47,1.49.7,2.52.7s1.84-.23,2.45-.69c.61-.46.91-1.08.91-1.88,0-.63-.2-1.13-.6-1.48-.4-.35-.9-.64-1.5-.86-.6-.22-1.24-.42-1.93-.6s-1.33-.41-1.93-.69c-.6-.28-1.1-.66-1.5-1.14s-.6-1.12-.6-1.93c0-1.18.43-2.12,1.28-2.81.86-.69,2.02-1.03,3.48-1.03s2.51.31,3.35.93c.84.62,1.26,1.43,1.26,2.44Z"/>
          <path d="M299.63,106.64h-1.59c0-.55-.28-.98-.85-1.3-.57-.32-1.3-.48-2.2-.48-.99,0-1.77.19-2.33.58-.57.39-.85.92-.85,1.59,0,.57.2,1.01.6,1.34.4.33.9.6,1.5.81.6.21,1.25.41,1.95.6.7.18,1.35.43,1.95.74s1.1.71,1.5,1.22.6,1.18.6,2.02c0,.64-.12,1.21-.36,1.72-.24.51-.57.95-1.01,1.32-.43.37-.96.66-1.58.86-.62.2-1.3.3-2.04.3s-1.43-.1-2.05-.3c-.63-.2-1.16-.49-1.6-.85-.44-.36-.79-.8-1.03-1.31s-.37-1.09-.37-1.72h1.59c0,.79.33,1.43.98,1.89.65.47,1.49.7,2.52.7s1.84-.23,2.45-.69c.61-.46.91-1.08.91-1.88,0-.63-.2-1.13-.6-1.48-.4-.35-.9-.64-1.5-.86-.6-.22-1.24-.42-1.93-.6s-1.33-.41-1.93-.69c-.6-.28-1.1-.66-1.5-1.14s-.6-1.12-.6-1.93c0-1.18.43-2.12,1.28-2.81.86-.69,2.02-1.03,3.48-1.03s2.51.31,3.35.93c.84.62,1.26,1.43,1.26,2.44Z"/>
          <path d="M310.74,108.25c0,1.22.2,2.33.6,3.32s.95,1.85,1.67,2.57,1.58,1.27,2.58,1.66,2.13.58,3.36.58c.55,0,1.1-.06,1.67-.18s1.11-.29,1.64-.5c.53-.21,1.03-.47,1.51-.78.48-.31.9-.65,1.27-1.02l1.24,1.01c-.41.46-.89.88-1.44,1.26-.56.38-1.16.7-1.8.97-.64.26-1.32.47-2.04.62-.71.15-1.43.22-2.13.22-1.45,0-2.77-.23-3.97-.7-1.2-.47-2.22-1.13-3.07-1.97-.85-.85-1.5-1.87-1.97-3.07-.47-1.2-.7-2.52-.7-3.97s.23-2.79.7-3.98,1.13-2.21,1.97-3.06,1.87-1.5,3.07-1.97,2.52-.7,3.97-.7c.71,0,1.42.08,2.13.23.71.15,1.39.36,2.04.62.64.26,1.24.59,1.8.97.56.38,1.04.8,1.44,1.26l-1.22,1.01c-.33-.37-.74-.71-1.2-1.01-.47-.3-.97-.56-1.51-.78s-1.09-.39-1.67-.5c-.57-.12-1.15-.17-1.73-.17-1.24,0-2.36.19-3.36.58s-1.87.94-2.58,1.64c-.71.71-1.27,1.56-1.67,2.55s-.6,2.1-.6,3.32Z"/>
          <path d="M338.86,103.57v8.31c0,.92-.13,1.75-.38,2.5-.26.75-.61,1.39-1.07,1.92s-1.01.94-1.67,1.23c-.65.29-1.38.44-2.17.44s-1.55-.15-2.22-.44c-.67-.29-1.24-.7-1.72-1.23-.48-.53-.84-1.17-1.1-1.92-.26-.75-.38-1.58-.38-2.5v-8.31h1.59v8.45c0,1.32.34,2.38,1.03,3.18s1.61,1.19,2.75,1.19c.56,0,1.08-.11,1.54-.32.46-.21.86-.51,1.19-.89.33-.38.59-.84.77-1.38.18-.54.26-1.13.26-1.79v-8.45h1.59Z"/>
          <path d="M350.48,106.64h-1.59c0-.55-.28-.98-.85-1.3-.57-.32-1.3-.48-2.2-.48-.99,0-1.77.19-2.33.58-.57.39-.85.92-.85,1.59,0,.57.2,1.01.6,1.34.4.33.9.6,1.5.81.6.21,1.25.41,1.95.6.7.18,1.35.43,1.95.74s1.1.71,1.5,1.22.6,1.18.6,2.02c0,.64-.12,1.21-.36,1.72-.24.51-.57.95-1.01,1.32-.43.37-.96.66-1.58.86-.62.2-1.3.3-2.04.3s-1.43-.1-2.05-.3c-.63-.2-1.16-.49-1.6-.85-.44-.36-.79-.8-1.03-1.31s-.37-1.09-.37-1.72h1.59c0,.79.33,1.43.98,1.89.65.47,1.49.7,2.52.7s1.84-.23,2.45-.69c.61-.46.91-1.08.91-1.88,0-.63-.2-1.13-.6-1.48-.4-.35-.9-.64-1.5-.86-.6-.22-1.24-.42-1.93-.6s-1.33-.41-1.93-.69c-.6-.28-1.1-.66-1.5-1.14s-.6-1.12-.6-1.93c0-1.18.43-2.12,1.28-2.81.86-.69,2.02-1.03,3.48-1.03s2.51.31,3.35.93c.84.62,1.26,1.43,1.26,2.44Z"/>
          <path d="M354.19,103.57v-3.34h1.59v3.34h4.18v1.54h-4.18v7.44c0,1.11.23,1.99.7,2.65.47.65,1.11.98,1.92.98h1.56v1.54h-1.38c-.65,0-1.25-.12-1.8-.34-.55-.23-1.01-.56-1.39-.98-.38-.42-.68-.93-.89-1.52-.21-.59-.32-1.25-.32-1.97v-7.78h-2.12v-1.54h2.12Z"/>
          <path d="M361.28,110.61c0-1.09.18-2.09.53-2.99.35-.9.85-1.67,1.5-2.32s1.42-1.14,2.32-1.5c.9-.35,1.91-.53,3.02-.53s2.09.18,2.99.53c.9.35,1.67.85,2.32,1.5.64.64,1.14,1.42,1.5,2.32.35.9.53,1.9.53,2.99s-.18,2.12-.53,3.02c-.35.9-.85,1.67-1.5,2.32-.64.64-1.42,1.14-2.32,1.5-.9.35-1.9.53-2.99.53s-2.12-.18-3.02-.53c-.9-.35-1.67-.85-2.32-1.5s-1.14-1.42-1.5-2.32c-.35-.9-.53-1.91-.53-3.02ZM362.87,110.61c0,1.78.52,3.19,1.55,4.22,1.03,1.03,2.44,1.55,4.22,1.55.88,0,1.68-.13,2.38-.4.71-.26,1.31-.65,1.81-1.15.5-.5.89-1.11,1.15-1.83.26-.71.4-1.51.4-2.4s-.14-1.68-.41-2.38c-.27-.71-.66-1.31-1.15-1.8-.49-.49-1.09-.88-1.8-1.15-.71-.27-1.5-.41-2.38-.41s-1.68.13-2.4.4c-.71.26-1.32.65-1.83,1.15s-.89,1.11-1.15,1.81c-.26.71-.4,1.5-.4,2.38Z"/>
          <path d="M386.96,109.02c0-2.77-1.25-4.16-3.76-4.16-.55,0-1.05.1-1.52.3s-.87.49-1.2.86c-.34.37-.6.81-.78,1.32-.19.51-.28,1.07-.28,1.67v8.68h-1.59v-8.34c0-.92.13-1.75.38-2.5.26-.75.62-1.39,1.1-1.92.48-.53,1.05-.94,1.72-1.23.67-.29,1.41-.44,2.22-.44,1.04,0,1.96.21,2.74.63.79.42,1.4,1.02,1.84,1.77.46-.71,1.08-1.28,1.85-1.73.78-.45,1.68-.67,2.7-.67.79,0,1.52.15,2.17.44.65.29,1.21.7,1.67,1.23.46.53.82,1.17,1.07,1.92.26.75.38,1.58.38,2.5v8.34h-1.59v-8.68c0-.62-.09-1.18-.28-1.69-.18-.51-.44-.95-.77-1.31-.33-.36-.72-.64-1.18-.85s-.97-.3-1.54-.3-1.08.1-1.55.3-.86.49-1.19.86c-.33.37-.58.81-.77,1.31-.19.5-.28,1.06-.28,1.68v8.68h-1.59v-8.68Z"/>
          <path d="M401.15,111.4c.14,1.55.72,2.77,1.73,3.65s2.34,1.32,3.98,1.32c1.39,0,2.57-.33,3.52-.98.95-.65,1.62-1.59,2.01-2.81h1.61c-.18.81-.48,1.55-.9,2.22-.42.67-.94,1.24-1.55,1.69-.61.46-1.31.82-2.11,1.07-.79.26-1.66.38-2.59.38-1.09,0-2.09-.18-2.99-.53-.9-.35-1.67-.85-2.32-1.5s-1.14-1.42-1.5-2.32c-.35-.9-.53-1.9-.53-2.99s.18-2.12.53-3.02c.35-.9.85-1.67,1.5-2.32s1.42-1.14,2.32-1.5c.9-.35,1.9-.53,2.99-.53s2.12.18,3.02.53c.9.35,1.67.85,2.32,1.5.64.64,1.14,1.42,1.5,2.32.35.9.53,1.91.53,3.02v.38c0,.12,0,.24-.03.38h-13.05ZM412.61,109.87c-.12-1.54-.7-2.75-1.72-3.65-1.02-.9-2.37-1.35-4.02-1.35s-2.94.45-3.96,1.34c-1.01.89-1.6,2.11-1.76,3.67h11.46Z"/>
          <path d="M416.08,117.71v-9.32c0-.72.11-1.38.32-1.97.21-.59.51-1.1.9-1.52.39-.42.86-.75,1.4-.98.55-.23,1.16-.34,1.83-.34h3.18v1.54h-3.15c-.86,0-1.56.29-2.09.87-.53.58-.79,1.35-.79,2.3v9.42h-1.59Z"/>
          <path d="M433.5,98.8h2.25l6.06,16.7,6.06-16.7h2.25v18.9h-1.59v-16.2l-5.88,16.2h-1.69l-5.88-16.2v16.2h-1.59v-18.9Z"/>
          <path d="M466.94,117.71h-1.59v-2.22c-.65.79-1.47,1.41-2.45,1.84-.98.43-2.09.65-3.32.65-1.09,0-2.09-.18-2.99-.53-.9-.35-1.67-.85-2.32-1.5s-1.14-1.42-1.5-2.32c-.35-.9-.53-1.9-.53-2.99s.18-2.12.53-3.02c.35-.9.85-1.67,1.5-2.32s1.42-1.14,2.32-1.5c.9-.35,1.9-.53,2.99-.53s2.12.18,3.02.53c.9.35,1.67.85,2.32,1.5.64.64,1.14,1.42,1.5,2.32.35.9.53,1.91.53,3.02v7.07ZM465.35,110.64c0-1.78-.52-3.19-1.55-4.22-1.03-1.03-2.44-1.55-4.22-1.55-.87,0-1.66.14-2.37.41s-1.32.66-1.81,1.16-.88,1.11-1.15,1.81-.41,1.5-.41,2.38.14,1.65.41,2.37.66,1.32,1.15,1.81,1.1.88,1.81,1.15c.71.27,1.5.41,2.37.41s1.68-.14,2.38-.41c.71-.27,1.31-.66,1.81-1.15.5-.49.89-1.1,1.16-1.81.27-.71.41-1.5.41-2.37Z"/>
          <path d="M478.19,108.86c0-.58-.09-1.12-.28-1.6-.18-.48-.45-.91-.78-1.27-.34-.36-.73-.64-1.19-.83-.46-.19-.96-.29-1.51-.29s-1.05.1-1.51.3c-.46.2-.86.48-1.19.83-.34.35-.6.77-.79,1.26-.19.49-.29,1.02-.29,1.6v8.84h-1.59v-8.34c0-.92.13-1.75.38-2.5.26-.75.62-1.39,1.1-1.92.48-.53,1.05-.94,1.72-1.23.67-.29,1.41-.44,2.22-.44s1.52.15,2.17.44c.65.29,1.21.7,1.67,1.23s.82,1.17,1.07,1.92c.26.75.38,1.58.38,2.5v8.34h-1.59v-8.84Z"/>
          <path d="M496.32,117.71h-1.59v-2.22c-.65.79-1.47,1.41-2.45,1.84-.98.43-2.09.65-3.32.65-1.09,0-2.09-.18-2.99-.53-.9-.35-1.67-.85-2.32-1.5s-1.14-1.42-1.5-2.32c-.35-.9-.53-1.9-.53-2.99s.18-2.12.53-3.02c.35-.9.85-1.67,1.5-2.32s1.42-1.14,2.32-1.5c.9-.35,1.9-.53,2.99-.53s2.12.18,3.02.53c.9.35,1.67.85,2.32,1.5.64.64,1.14,1.42,1.5,2.32.35.9.53,1.91.53,3.02v7.07ZM494.74,110.64c0-1.78-.52-3.19-1.55-4.22-1.03-1.03-2.44-1.55-4.22-1.55-.87,0-1.66.14-2.37.41s-1.32.66-1.81,1.16-.88,1.11-1.15,1.81-.41,1.5-.41,2.38.14,1.65.41,2.37.66,1.32,1.15,1.81,1.1.88,1.81,1.15c.71.27,1.5.41,2.37.41s1.68-.14,2.38-.41c.71-.27,1.31-.66,1.81-1.15.5-.49.89-1.1,1.16-1.81.27-.71.41-1.5.41-2.37Z"/>
          <path d="M498.18,110.61c0-1.09.18-2.09.53-2.99.35-.9.85-1.67,1.5-2.32s1.42-1.14,2.32-1.5c.9-.35,1.91-.53,3.02-.53s2.09.18,2.99.53c.9.35,1.67.85,2.32,1.5.64.64,1.14,1.42,1.5,2.32.35.9.53,1.9.53,2.99v8.37c0,.72-.15,1.38-.45,1.97-.3.59-.69,1.1-1.16,1.52-.48.42-1.01.75-1.59.98-.58.23-1.16.34-1.72.34h-5.06v-1.54h4.71c.53,0,1.01-.09,1.46-.26.44-.18.83-.42,1.16-.73.33-.31.6-.67.78-1.09.19-.41.28-.87.28-1.36v-3.34c-.65.79-1.47,1.41-2.44,1.84-.97.43-2.07.65-3.31.65-1.11,0-2.12-.18-3.02-.53-.9-.35-1.67-.85-2.32-1.5s-1.14-1.42-1.5-2.32c-.35-.9-.53-1.91-.53-3.02ZM499.77,110.61c0,.88.14,1.68.41,2.38.27.71.66,1.31,1.16,1.81.5.5,1.11.89,1.81,1.16.71.27,1.5.41,2.38.41s1.68-.13,2.38-.4c.71-.26,1.31-.65,1.81-1.15.5-.5.89-1.11,1.15-1.83.26-.71.4-1.51.4-2.4s-.13-1.68-.4-2.38c-.26-.71-.65-1.31-1.15-1.81s-1.11-.89-1.81-1.15c-.71-.26-1.5-.4-2.38-.4s-1.68.14-2.38.41-1.31.66-1.81,1.15c-.5.49-.89,1.09-1.16,1.8-.27.71-.41,1.5-.41,2.38Z"/>
          <path d="M516.34,111.4c.14,1.55.72,2.77,1.73,3.65s2.34,1.32,3.98,1.32c1.39,0,2.57-.33,3.52-.98.95-.65,1.62-1.59,2.01-2.81h1.61c-.18.81-.48,1.55-.9,2.22-.42.67-.94,1.24-1.55,1.69-.61.46-1.31.82-2.11,1.07-.79.26-1.66.38-2.59.38-1.09,0-2.09-.18-2.99-.53-.9-.35-1.67-.85-2.32-1.5s-1.14-1.42-1.5-2.32c-.35-.9-.53-1.9-.53-2.99s.18-2.12.53-3.02c.35-.9.85-1.67,1.5-2.32s1.42-1.14,2.32-1.5c.9-.35,1.9-.53,2.99-.53s2.12.18,3.02.53c.9.35,1.67.85,2.32,1.5.64.64,1.14,1.42,1.5,2.32.35.9.53,1.91.53,3.02v.38c0,.12,0,.24-.03.38h-13.05ZM527.8,109.87c-.12-1.54-.7-2.75-1.72-3.65-1.02-.9-2.37-1.35-4.02-1.35s-2.94.45-3.96,1.34c-1.01.89-1.6,2.11-1.76,3.67h11.46Z"/>
          <path d="M540.4,109.02c0-2.77-1.25-4.16-3.76-4.16-.55,0-1.05.1-1.52.3s-.87.49-1.2.86c-.34.37-.6.81-.78,1.32-.19.51-.28,1.07-.28,1.67v8.68h-1.59v-8.34c0-.92.13-1.75.38-2.5.26-.75.62-1.39,1.1-1.92.48-.53,1.05-.94,1.72-1.23.67-.29,1.41-.44,2.22-.44,1.04,0,1.96.21,2.74.63.79.42,1.4,1.02,1.84,1.77.46-.71,1.08-1.28,1.85-1.73.78-.45,1.68-.67,2.7-.67.79,0,1.52.15,2.17.44.65.29,1.21.7,1.67,1.23.46.53.82,1.17,1.07,1.92.26.75.38,1.58.38,2.5v8.34h-1.59v-8.68c0-.62-.09-1.18-.28-1.69-.18-.51-.44-.95-.77-1.31-.33-.36-.72-.64-1.18-.85s-.97-.3-1.54-.3-1.08.1-1.55.3-.86.49-1.19.86c-.33.37-.58.81-.77,1.31-.19.5-.28,1.06-.28,1.68v8.68h-1.59v-8.68Z"/>
          <path d="M554.59,111.4c.14,1.55.72,2.77,1.73,3.65s2.34,1.32,3.98,1.32c1.39,0,2.57-.33,3.52-.98.95-.65,1.62-1.59,2.01-2.81h1.61c-.18.81-.48,1.55-.9,2.22-.42.67-.94,1.24-1.55,1.69-.61.46-1.31.82-2.11,1.07-.79.26-1.66.38-2.59.38-1.09,0-2.09-.18-2.99-.53-.9-.35-1.67-.85-2.32-1.5s-1.14-1.42-1.5-2.32c-.35-.9-.53-1.9-.53-2.99s.18-2.12.53-3.02c.35-.9.85-1.67,1.5-2.32s1.42-1.14,2.32-1.5c.9-.35,1.9-.53,2.99-.53s2.12.18,3.02.53c.9.35,1.67.85,2.32,1.5.64.64,1.14,1.42,1.5,2.32.35.9.53,1.91.53,3.02v.38c0,.12,0,.24-.03.38h-13.05ZM566.06,109.87c-.12-1.54-.7-2.75-1.72-3.65-1.02-.9-2.37-1.35-4.02-1.35s-2.94.45-3.96,1.34c-1.01.89-1.6,2.11-1.76,3.67h11.46Z"/>
          <path d="M578.66,108.86c0-.58-.09-1.12-.28-1.6-.18-.48-.45-.91-.78-1.27-.34-.36-.73-.64-1.19-.83-.46-.19-.96-.29-1.51-.29s-1.05.1-1.51.3c-.46.2-.86.48-1.19.83-.34.35-.6.77-.79,1.26-.19.49-.29,1.02-.29,1.6v8.84h-1.59v-8.34c0-.92.13-1.75.38-2.5.26-.75.62-1.39,1.1-1.92.48-.53,1.05-.94,1.72-1.23.67-.29,1.41-.44,2.22-.44s1.52.15,2.17.44c.65.29,1.21.7,1.67,1.23s.82,1.17,1.07,1.92c.26.75.38,1.58.38,2.5v8.34h-1.59v-8.84Z"/>
          <path d="M583.69,103.57v-3.34h1.59v3.34h4.18v1.54h-4.18v7.44c0,1.11.23,1.99.7,2.65.47.65,1.11.98,1.92.98h1.56v1.54h-1.38c-.65,0-1.25-.12-1.8-.34-.55-.23-1.01-.56-1.39-.98-.38-.42-.68-.93-.89-1.52-.21-.59-.32-1.25-.32-1.97v-7.78h-2.12v-1.54h2.12Z"/>
        </g>
      </g>
      <g>
        <path class="cls-2" d="M28.83,38.68L65.95,1.56c2.07-2.08,5.44-2.08,7.52,0l37.12,37.12c-5.85,16.96-21.94,29.14-40.88,29.14s-35.03-12.19-40.88-29.14Z"/>
        <path class="cls-1" d="M137.86,73.47l-43.09,43.09c-1.88,1.88-4.94,1.88-6.83,0l-14.82-14.83c-1.89-1.89-4.94-1.89-6.83,0l-14.82,14.83c-1.89,1.88-4.94,1.88-6.83,0L1.56,73.47c-2.08-2.08-2.08-5.44,0-7.52l13.05-13.05c10.28,19.96,31.1,33.62,55.1,33.62s44.82-13.66,55.11-33.62l13.05,13.05c2.08,2.08,2.08,5.44,0,7.52Z"/>
      </g>
    </g>
  </g>
</svg>